<mxfile host="Electron" modified="2024-08-13T08:15:36.772Z" agent="Mozilla/5.0 (Windows NT 10.0; Win64; x64) AppleWebKit/537.36 (KHTML, like Gecko) draw.io/23.1.5 Chrome/120.0.6099.109 Electron/28.1.0 Safari/537.36" etag="ODp9Mg18M848pO6WJJgx" version="23.1.5" type="device">
  <diagram name="Page-1" id="_cd2Dx443mShTlunckcS">
    <mxGraphModel dx="1195" dy="703" grid="1" gridSize="10" guides="1" tooltips="1" connect="1" arrows="1" fold="1" page="1" pageScale="1" pageWidth="850" pageHeight="1100" math="0" shadow="0">
      <root>
        <mxCell id="0" />
        <mxCell id="1" parent="0" />
        <mxCell id="AMKdjNIlF3-HhAw5MF-n-1" value="FE" style="rounded=0;whiteSpace=wrap;html=1;" vertex="1" parent="1">
          <mxGeometry x="100" y="240" width="120" height="60" as="geometry" />
        </mxCell>
        <mxCell id="AMKdjNIlF3-HhAw5MF-n-2" value="BE" style="rounded=0;whiteSpace=wrap;html=1;" vertex="1" parent="1">
          <mxGeometry x="280" y="140" width="120" height="60" as="geometry" />
        </mxCell>
        <mxCell id="AMKdjNIlF3-HhAw5MF-n-3" value="Validation BE" style="rounded=0;whiteSpace=wrap;html=1;" vertex="1" parent="1">
          <mxGeometry x="280" y="360" width="120" height="60" as="geometry" />
        </mxCell>
        <mxCell id="AMKdjNIlF3-HhAw5MF-n-4" value="Openapi&lt;br&gt;linter service" style="rounded=0;whiteSpace=wrap;html=1;" vertex="1" parent="1">
          <mxGeometry x="520" y="300" width="120" height="60" as="geometry" />
        </mxCell>
        <mxCell id="AMKdjNIlF3-HhAw5MF-n-5" value="Graphql &lt;br&gt;linter service" style="rounded=0;whiteSpace=wrap;html=1;" vertex="1" parent="1">
          <mxGeometry x="520" y="440" width="120" height="60" as="geometry" />
        </mxCell>
        <mxCell id="AMKdjNIlF3-HhAw5MF-n-6" value="Validation BE DB" style="shape=cylinder3;whiteSpace=wrap;html=1;boundedLbl=1;backgroundOutline=1;size=15;" vertex="1" parent="1">
          <mxGeometry x="310" y="500" width="60" height="80" as="geometry" />
        </mxCell>
        <mxCell id="AMKdjNIlF3-HhAw5MF-n-7" value="" style="endArrow=classic;html=1;rounded=0;exitX=1;exitY=0.75;exitDx=0;exitDy=0;entryX=0;entryY=0;entryDx=0;entryDy=0;" edge="1" parent="1" source="AMKdjNIlF3-HhAw5MF-n-1" target="AMKdjNIlF3-HhAw5MF-n-3">
          <mxGeometry width="50" height="50" relative="1" as="geometry">
            <mxPoint x="400" y="460" as="sourcePoint" />
            <mxPoint x="450" y="410" as="targetPoint" />
          </mxGeometry>
        </mxCell>
        <mxCell id="AMKdjNIlF3-HhAw5MF-n-25" value="get validation messages" style="edgeLabel;html=1;align=center;verticalAlign=middle;resizable=0;points=[];" vertex="1" connectable="0" parent="AMKdjNIlF3-HhAw5MF-n-7">
          <mxGeometry x="-0.135" y="-2" relative="1" as="geometry">
            <mxPoint x="-1" as="offset" />
          </mxGeometry>
        </mxCell>
        <mxCell id="AMKdjNIlF3-HhAw5MF-n-8" value="" style="endArrow=classic;html=1;rounded=0;entryX=0.5;entryY=1;entryDx=0;entryDy=0;exitX=0.5;exitY=0;exitDx=0;exitDy=0;" edge="1" parent="1" source="AMKdjNIlF3-HhAw5MF-n-3" target="AMKdjNIlF3-HhAw5MF-n-2">
          <mxGeometry width="50" height="50" relative="1" as="geometry">
            <mxPoint x="310" y="280" as="sourcePoint" />
            <mxPoint x="360" y="230" as="targetPoint" />
          </mxGeometry>
        </mxCell>
        <mxCell id="AMKdjNIlF3-HhAw5MF-n-23" value="get version/doc data" style="edgeLabel;html=1;align=center;verticalAlign=middle;resizable=0;points=[];" vertex="1" connectable="0" parent="AMKdjNIlF3-HhAw5MF-n-8">
          <mxGeometry x="0.1" y="-2" relative="1" as="geometry">
            <mxPoint x="-12" y="8" as="offset" />
          </mxGeometry>
        </mxCell>
        <mxCell id="AMKdjNIlF3-HhAw5MF-n-9" value="" style="endArrow=classic;html=1;rounded=0;exitX=0;exitY=0.5;exitDx=0;exitDy=0;startArrow=none;startFill=0;" edge="1" parent="1" source="AMKdjNIlF3-HhAw5MF-n-4">
          <mxGeometry width="50" height="50" relative="1" as="geometry">
            <mxPoint x="400" y="460" as="sourcePoint" />
            <mxPoint x="400" y="380" as="targetPoint" />
          </mxGeometry>
        </mxCell>
        <mxCell id="AMKdjNIlF3-HhAw5MF-n-11" value="" style="endArrow=classic;startArrow=none;html=1;rounded=0;exitX=0;exitY=0.5;exitDx=0;exitDy=0;entryX=1;entryY=0.75;entryDx=0;entryDy=0;startFill=0;" edge="1" parent="1" source="AMKdjNIlF3-HhAw5MF-n-5" target="AMKdjNIlF3-HhAw5MF-n-3">
          <mxGeometry width="50" height="50" relative="1" as="geometry">
            <mxPoint x="400" y="460" as="sourcePoint" />
            <mxPoint x="450" y="410" as="targetPoint" />
          </mxGeometry>
        </mxCell>
        <mxCell id="AMKdjNIlF3-HhAw5MF-n-13" style="edgeStyle=orthogonalEdgeStyle;rounded=0;orthogonalLoop=1;jettySize=auto;html=1;exitX=0.5;exitY=1;exitDx=0;exitDy=0;entryX=0.5;entryY=0;entryDx=0;entryDy=0;entryPerimeter=0;" edge="1" parent="1" source="AMKdjNIlF3-HhAw5MF-n-3" target="AMKdjNIlF3-HhAw5MF-n-6">
          <mxGeometry relative="1" as="geometry" />
        </mxCell>
        <mxCell id="AMKdjNIlF3-HhAw5MF-n-16" value="" style="endArrow=classic;startArrow=none;html=1;rounded=0;exitX=1;exitY=0.25;exitDx=0;exitDy=0;entryX=0.25;entryY=1;entryDx=0;entryDy=0;entryPerimeter=0;startFill=0;" edge="1" parent="1" source="AMKdjNIlF3-HhAw5MF-n-1" target="AMKdjNIlF3-HhAw5MF-n-2">
          <mxGeometry width="50" height="50" relative="1" as="geometry">
            <mxPoint x="400" y="460" as="sourcePoint" />
            <mxPoint x="450" y="410" as="targetPoint" />
          </mxGeometry>
        </mxCell>
        <mxCell id="AMKdjNIlF3-HhAw5MF-n-17" value="Openapi&lt;br&gt;linter service" style="rounded=0;whiteSpace=wrap;html=1;" vertex="1" parent="1">
          <mxGeometry x="530" y="310" width="120" height="60" as="geometry" />
        </mxCell>
        <mxCell id="AMKdjNIlF3-HhAw5MF-n-18" value="Graphql &lt;br&gt;linter service" style="rounded=0;whiteSpace=wrap;html=1;" vertex="1" parent="1">
          <mxGeometry x="530" y="450" width="120" height="60" as="geometry" />
        </mxCell>
        <mxCell id="AMKdjNIlF3-HhAw5MF-n-20" value="pubsub" style="ellipse;shape=cloud;whiteSpace=wrap;html=1;" vertex="1" parent="1">
          <mxGeometry x="425" y="220" width="120" height="80" as="geometry" />
        </mxCell>
        <mxCell id="AMKdjNIlF3-HhAw5MF-n-21" value="" style="endArrow=classic;html=1;rounded=0;exitX=0.75;exitY=1;exitDx=0;exitDy=0;entryX=0.25;entryY=0.25;entryDx=0;entryDy=0;entryPerimeter=0;" edge="1" parent="1" source="AMKdjNIlF3-HhAw5MF-n-2" target="AMKdjNIlF3-HhAw5MF-n-20">
          <mxGeometry width="50" height="50" relative="1" as="geometry">
            <mxPoint x="380" y="350" as="sourcePoint" />
            <mxPoint x="430" y="300" as="targetPoint" />
          </mxGeometry>
        </mxCell>
        <mxCell id="AMKdjNIlF3-HhAw5MF-n-24" value="version created events" style="edgeLabel;html=1;align=center;verticalAlign=middle;resizable=0;points=[];" vertex="1" connectable="0" parent="AMKdjNIlF3-HhAw5MF-n-21">
          <mxGeometry x="-0.1921" y="-3" relative="1" as="geometry">
            <mxPoint x="82" y="-9" as="offset" />
          </mxGeometry>
        </mxCell>
        <mxCell id="AMKdjNIlF3-HhAw5MF-n-22" value="" style="endArrow=classic;html=1;rounded=0;exitX=0.31;exitY=0.8;exitDx=0;exitDy=0;exitPerimeter=0;entryX=0.75;entryY=0;entryDx=0;entryDy=0;" edge="1" parent="1" source="AMKdjNIlF3-HhAw5MF-n-20" target="AMKdjNIlF3-HhAw5MF-n-3">
          <mxGeometry width="50" height="50" relative="1" as="geometry">
            <mxPoint x="380" y="350" as="sourcePoint" />
            <mxPoint x="420" y="350" as="targetPoint" />
          </mxGeometry>
        </mxCell>
        <mxCell id="AMKdjNIlF3-HhAw5MF-n-26" value="get validation tasks and send results back" style="text;html=1;align=center;verticalAlign=middle;resizable=0;points=[];autosize=1;strokeColor=none;fillColor=none;" vertex="1" parent="1">
          <mxGeometry x="410" y="380" width="250" height="30" as="geometry" />
        </mxCell>
        <mxCell id="AMKdjNIlF3-HhAw5MF-n-27" value="store validation results" style="text;html=1;align=center;verticalAlign=middle;resizable=0;points=[];autosize=1;strokeColor=none;fillColor=none;" vertex="1" parent="1">
          <mxGeometry x="170" y="470" width="150" height="30" as="geometry" />
        </mxCell>
      </root>
    </mxGraphModel>
  </diagram>
</mxfile>
